Coordinates
version=1
nRows=38
nColumns=12
inDegrees=yes

Units are S.I. units (second, meters, Newtons, ...)
Angles are in degrees

endheader
time	SC_y	SC_z	SC_x	AC_y	AC_z	AC_x	GH_y	GH_z	GH_yy	EL_x	PS_y
       0.0              -58.98            1.6          55.79          39.46          4.305         -3.369          104.8          18.46          109.4          99.97          92.65
   0.04288              -58.98          1.604          55.79          39.47          4.306         -3.368          104.8          18.47          109.4          99.97          92.65
   0.08576              -58.98          1.608          55.79          39.47          4.306         -3.368          104.8          18.48          109.4          99.96          92.65
    0.1286              -58.97          1.612          55.79          39.47          4.307         -3.366          104.8          18.49          109.3          99.96          92.65
    0.1715              -58.97          1.617          55.79          39.48          4.308         -3.365          104.8           18.5          109.3          99.96          92.65
    0.2144              -58.97          1.622          55.79          39.48          4.309         -3.364          104.8          18.51          109.3          99.96          92.65
    0.2573              -58.96          1.627          55.79          39.48           4.31         -3.363          104.8          18.53          109.2          99.96          92.65
    0.3002              -58.96          1.633          55.79          39.49          4.311         -3.362          104.8          18.54          109.2          99.95          92.65
    0.3431              -58.95          1.639          55.79          39.49          4.312          -3.36          104.8          18.56          109.1          99.95          92.65
    0.3859              -58.95          1.646          55.79           39.5          4.313         -3.359          104.8          18.57          109.1          99.95          92.65
    0.4288              -58.94          1.653          55.79           39.5          4.314         -3.357          104.8          18.59          109.0          99.95          92.66
    0.4717              -58.94           1.66          55.79          39.51          4.316         -3.355          104.8          18.61          109.0          99.94          92.66
    0.5146              -58.93          1.668          55.79          39.51          4.317         -3.353          104.7          18.63          108.9          99.94          92.66
    0.5575              -58.93          1.677           55.8          39.52          4.318         -3.351          104.7          18.65          108.9          99.93          92.66
    0.6004              -58.92          1.687           55.8          39.53           4.32         -3.349          104.7          18.68          108.8          99.93          92.66
    0.6432              -58.91          1.697           55.8          39.54          4.322         -3.346          104.7           18.7          108.7          99.93          92.66
    0.6861               -58.9          1.708           55.8          39.54          4.324         -3.344          104.7          18.73          108.6          99.92          92.67
     0.729              -58.89          1.721           55.8          39.55          4.326         -3.341          104.7          18.76          108.5          99.92          92.67
    0.7719              -58.88          1.734           55.8          39.56          4.328         -3.338          104.7           18.8          108.4          99.91          92.67
    0.8148              -58.87          1.749           55.8          39.57          4.331         -3.334          104.6          18.83          108.3           99.9          92.67
    0.8576              -58.86          1.765          55.81          39.58          4.334          -3.33          104.6          18.87          108.2           99.9          92.68
    0.9005              -58.85          1.783          55.81           39.6          4.337         -3.326          104.6          18.92          108.1          99.89          92.68
    0.9434              -58.83          1.802          55.81          39.61           4.34         -3.321          104.6          18.97          108.0          99.88          92.68
    0.9863              -58.82          1.824          55.81          39.63          4.344         -3.316          104.5          19.02          107.8          99.87          92.69
     1.029               -58.8          1.848          55.82          39.65          4.348         -3.311          104.5          19.08          107.6          99.86          92.69
     1.072              -58.78          1.875          55.82          39.67          4.352         -3.304          104.5          19.15          107.4          99.85           92.7
     1.115              -58.76          1.905          55.83          39.69          4.358         -3.297          104.4          19.23          107.2          99.83           92.7
     1.158              -58.73          1.939          55.83          39.71          4.364         -3.289          104.4          19.31          107.0          99.82          92.71
     1.201               -58.7          1.977          55.84          39.74           4.37          -3.28          104.4          19.41          106.7           99.8          92.72
     1.244              -58.67          2.021          55.84          39.77          4.378          -3.27          104.3          19.52          106.4          99.78          92.73
     1.286              -58.64           2.07          55.85          39.81          4.386         -3.258          104.2          19.64          106.0          99.76          92.74
     1.329              -58.59          2.127          55.86          39.85          4.396         -3.244          104.2          19.79          105.6          99.74          92.75
     1.372              -58.55          2.193          55.86           39.9          4.407         -3.229          104.1          19.95          105.1          99.71          92.76
     1.415              -58.49           2.27          55.87          39.95           4.42         -3.211          104.0          20.15          104.6          99.67          92.77
     1.458              -58.42          2.359          55.89          40.02          4.436         -3.189          103.9          20.37          103.9          99.63          92.79
     1.501              -58.35          2.464           55.9           40.1          4.454         -3.164          103.7          20.64          103.2          99.59          92.81
     1.544              -58.25           2.59          55.92          40.19          4.476         -3.135          103.6          20.95          102.2          99.53          92.83
     1.587              -58.14           2.74          55.94           40.3          4.502         -3.099          103.4          21.33          101.2          99.47          92.86
